<?xml version="1.0" encoding="UTF-8"?><svg id="Layer_1" width="100%" height="100%" xmlns="http://www.w3.org/2000/svg" viewBox="0 0 512 512"><path d="M426.62,28.5H85.38c-31.41,0-56.88,25.46-56.88,56.88v341.25c0,31.41,25.46,56.88,56.88,56.88h341.25c31.41,0,56.88-25.46,56.88-56.88V85.38c0-31.41-25.46-56.88-56.88-56.88ZM82.3,422.76c7-9.65,15.68-18.77,24.34-27.87,24.42-25.71,48.67-51.17,33.88-87.17-19.81-48.17-8.27-104.63,28.4-141.33,38.13-38.14,94.26-47.76,141.16-28.44,10.37,3.87,19.41,9.35,26.47,14.46l-39.15,18.11c-36.48-15.32-78.24-4.91-103.74,20.63-34.47,34.49-41.42,94.28-1.02,132.92l-.04.04-110.3,98.66ZM427.12,92.84c-36.31,50.07-54.03,74.54-39.81,135.8l-.09-.08c9.82,41.69-.68,87.93-34.56,121.86-42.71,42.79-111.08,52.32-167.36,13.8l39.24-18.2c35.93,14.12,75.25,7.92,103.49-20.36,28.25-28.29,34.6-69.48,20.4-103.76-2.71-6.5-10.81-8.13-16.46-3.94l-115.49,85.35,165.43-166.38v.15l47.79-47.85c-.85,1.21-1.73,2.41-2.58,3.6Z"/></svg>