<!DOCTYPE svg PUBLIC "-//W3C//DTD SVG 1.1//EN" "http://www.w3.org/Graphics/SVG/1.1/DTD/svg11.dtd">
<!-- Uploaded to: SVG Repo, www.svgrepo.com, Transformed by: SVG Repo Mixer Tools -->
<svg version="1.1" id="Layer_1" xmlns="http://www.w3.org/2000/svg" xmlns:xlink="http://www.w3.org/1999/xlink" viewBox="0 0 512 512" xml:space="preserve" width="800px" height="800px" fill="#000000">
<g id="SVGRepo_bgCarrier" stroke-width="0"/>
<g id="SVGRepo_tracerCarrier" stroke-linecap="round" stroke-linejoin="round"/>
<g id="SVGRepo_iconCarrier"> <circle style="fill:#0F7986;" cx="256" cy="256" r="256"/> <path style="fill:#666666;" d="M70.738,118.028H441.26c12.172,0,22.133,9.959,22.133,22.133v228.247H48.607V140.161 c0-12.172,9.959-22.133,22.133-22.133C70.74,118.028,70.738,118.028,70.738,118.028z"/> <path style="fill:#FFFFFF;" d="M63.635,353.379h384.731V140.161c0-3.879-3.227-7.103-7.105-7.103H70.738 c-3.879,0-7.103,3.224-7.103,7.103V353.379z"/> <path style="fill:#C2C2C4;" d="M17.707,368.408h476.587v12.783c0,7.03-5.751,12.781-12.781,12.781H30.49 c-7.03,0-12.781-5.751-12.781-12.781v-12.783H17.707z"/> <rect x="74.914" y="144.897" style="fill:#20D0C2;" width="40.742" height="7.016"/> <rect x="120.365" y="144.897" style="fill:#FF5B62;" width="72.269" height="7.016"/> <g> <rect x="196.117" y="144.897" style="fill:#FAD24D;" width="61.53" height="7.016"/> <rect x="117.71" y="173.751" style="fill:#FAD24D;" width="21.616" height="7.016"/> </g> <rect x="141.833" y="173.751" style="fill:#FF5B62;" width="38.345" height="7.016"/> <g> <rect x="182.014" y="173.751" style="fill:#20D0C2;" width="32.642" height="7.016"/> <rect x="74.664" y="186.087" style="fill:#20D0C2;" width="37.976" height="7.016"/> </g> <rect x="117.021" y="186.087" style="fill:#FAD24D;" width="67.348" height="7.016"/> <rect x="115.195" y="200.818" style="fill:#FF5B62;" width="37.976" height="7.016"/> <rect x="157.562" y="200.818" style="fill:#20D0C2;" width="67.348" height="7.016"/> <rect x="81.431" y="214.89" style="fill:#FAD24D;" width="37.976" height="7.016"/> <rect x="124.427" y="214.89" style="fill:#20D0C2;" width="27.177" height="7.016"/> <rect x="158.001" y="214.89" style="fill:#FF5B62;" width="76.311" height="7.016"/> <g> <rect x="239.891" y="214.89" style="fill:#20D0C2;" width="27.177" height="7.016"/> <rect x="73.317" y="229.622" style="fill:#20D0C2;" width="101.622" height="7.016"/> </g> <rect x="179.37" y="229.622" style="fill:#FAD24D;" width="27.177" height="7.016"/> <rect x="210.409" y="229.622" style="fill:#FF5B62;" width="37.976" height="7.016"/> <g> <rect x="119.437" y="158.48" style="fill:#FFFFFF;" width="2.807" height="8.416"/> <rect x="192.255" y="186.087" style="fill:#FFFFFF;" width="2.807" height="8.416"/> </g> <rect x="74.914" y="250.381" style="fill:#20D0C2;" width="40.742" height="7.016"/> <rect x="120.365" y="250.381" style="fill:#FF5B62;" width="72.269" height="7.016"/> <g> <rect x="196.117" y="250.381" style="fill:#FAD24D;" width="61.53" height="7.016"/> <rect x="117.71" y="279.245" style="fill:#FAD24D;" width="21.616" height="7.016"/> </g> <rect x="141.833" y="279.245" style="fill:#FF5B62;" width="38.345" height="7.016"/> <g> <rect x="182.014" y="279.245" style="fill:#20D0C2;" width="32.642" height="7.016"/> <rect x="74.664" y="291.571" style="fill:#20D0C2;" width="37.976" height="7.016"/> </g> <rect x="117.021" y="291.571" style="fill:#FAD24D;" width="67.348" height="7.016"/> <g> <rect x="119.437" y="263.964" style="fill:#FFFFFF;" width="2.807" height="8.416"/> <rect x="192.255" y="291.571" style="fill:#FFFFFF;" width="2.807" height="8.416"/> </g> <g> <rect x="289.295" y="144.897" style="fill:#DCE3DB;" width="147.352" height="33.984"/> <path style="fill:#DCE3DB;" d="M289.288,183.692h70.178v44.852h-70.178V183.692z"/> <path style="fill:#DCE3DB;" d="M366.465,183.692h70.178v44.852h-70.178V183.692z"/> <path style="fill:#DCE3DB;" d="M289.491,234.973h146.953v2.172H289.491L289.491,234.973L289.491,234.973z M289.491,255.507h96.534 v2.172h-96.534V255.507z M289.491,248.661h146.953v2.172H289.491L289.491,248.661L289.491,248.661z M289.491,241.819h146.953v2.172 H289.491L289.491,241.819L289.491,241.819z"/> <path style="fill:#DCE3DB;" d="M289.115,263.016h43.793v43.42h-43.793V263.016z M393.028,263.016h43.795v43.42h-43.795V263.016z M341.073,263.016h43.793v43.42h-43.793V263.016z"/> <path style="fill:#DCE3DB;" d="M289.491,312.481h146.953v2.172H289.491L289.491,312.481L289.491,312.481z M289.491,333.015h96.534 v2.172h-96.534V333.015z M289.491,326.169h146.953v2.172H289.491L289.491,326.169L289.491,326.169z M289.491,319.326h146.953v2.172 H289.491L289.491,319.326L289.491,319.326z"/> </g> <path style="fill:#919191;" d="M210.58,372.154h90.842l-9.73,6.461h-71.38l-9.73-6.461H210.58z"/> </g>
</svg>