<?xml version="1.0" encoding="iso-8859-1"?>
<!-- Uploaded to: SVG Repo, www.svgrepo.com, Generator: SVG Repo Mixer Tools -->
<svg height="800px" width="800px" version="1.1" id="Layer_1" xmlns="http://www.w3.org/2000/svg" xmlns:xlink="http://www.w3.org/1999/xlink" 
	 viewBox="0 0 512 512" xml:space="preserve">
<circle style="fill:#273B7A;" cx="256" cy="256" r="256"/>
<path style="fill:#121149;" d="M512,256c0-2.22-0.029-4.434-0.084-6.641L390.88,128.324l-44.694,45.47l-10.597-10.597
	L116.772,395.228l115.684,115.684c7.754,0.707,15.603,1.088,23.542,1.088C397.384,512,512,397.384,512,256z"/>
<path style="fill:#FFEDB5;" d="M152.123,309.898c13.802-13.802,36.178-13.802,49.978,0c13.802,13.802,13.802,36.178,0,49.978
	c-13.802,13.8-85.328,35.35-85.328,35.35S138.323,323.699,152.123,309.898z"/>
<path style="fill:#FEE187;" d="M201.8,309.626l-84.777,84.777c-0.164,0.538-0.252,0.826-0.252,0.826s71.528-21.549,85.328-35.35
	c13.8-13.802,13.802-36.178,0-49.978C202.006,309.801,201.897,309.722,201.8,309.626z"/>
<path style="fill:#FFC61B;" d="M211.801,327.459l164.617-145.72c19.603-17.351,24.793-43.853,11.243-57.403l0,0
	c-13.548-13.548-40.052-8.357-57.403,11.243L184.541,300.197L211.801,327.459z"/>
<path style="fill:#EAA22F;" d="M387.662,124.338c-0.097-0.097-0.2-0.183-0.297-0.276l-189.481,189.48l13.917,13.917l164.617-145.72
	C396.019,164.388,401.211,137.887,387.662,124.338L387.662,124.338z"/>
<polygon style="fill:#E09112;" points="237.17,240.743 184.541,300.201 211.801,327.459 271.257,274.828 "/>
<polygon style="fill:#FF5419;" points="197.884,313.542 211.801,327.459 271.257,274.828 253.926,257.5 "/>
</svg>